<svg width="32" height="32" viewBox="0 0 32 32" fill="none" xmlns="http://www.w3.org/2000/svg">
<rect width="32" height="32" rx="16" fill="#4B2222"/>
<g clip-path="url(#clip0_6726_7)">
<path d="M11.0588 8.47058C10.6676 8.47058 10.3529 8.78529 10.3529 9.17646C10.3529 10.3206 11.0412 10.9235 11.5029 11.3265L11.5353 11.3559C12.0147 11.7735 12.2353 11.9971 12.2353 12.4706C12.2353 12.8618 12.55 13.1765 12.9412 13.1765C13.3323 13.1765 13.6471 12.8618 13.6471 12.4706C13.6471 11.3265 12.9588 10.7235 12.4971 10.3206L12.4647 10.2912C11.9853 9.87352 11.7647 9.64999 11.7647 9.17646C11.7647 8.78529 11.45 8.47058 11.0588 8.47058ZM9.41176 14.1176C8.89117 14.1176 8.47058 14.5382 8.47058 15.0588V20.7059C8.47058 22.2647 9.73529 23.5294 11.2941 23.5294H16.9412C18.5 23.5294 19.7647 22.2647 19.7647 20.7059H20.2353C22.0559 20.7059 23.5294 19.2323 23.5294 17.4118C23.5294 15.5912 22.0559 14.1176 20.2353 14.1176H18.8235H9.41176ZM19.7647 16H20.2353C21.0147 16 21.6471 16.6323 21.6471 17.4118C21.6471 18.1912 21.0147 18.8235 20.2353 18.8235H19.7647V16ZM15.0588 9.17646C15.0588 8.78529 14.7441 8.47058 14.3529 8.47058C13.9618 8.47058 13.6471 8.78529 13.6471 9.17646C13.6471 10.3206 14.3353 10.9235 14.7971 11.3265L14.8294 11.3559C15.3088 11.7735 15.5294 11.9971 15.5294 12.4706C15.5294 12.8618 15.8441 13.1765 16.2353 13.1765C16.6265 13.1765 16.9412 12.8618 16.9412 12.4706C16.9412 11.3265 16.2529 10.7235 15.7912 10.3206L15.7588 10.2912C15.2794 9.87352 15.0588 9.64999 15.0588 9.17646Z" fill="#E1E1E3"/>
</g>
<defs>
<clipPath id="clip0_6726_7">
<rect x="8.47058" y="8.47058" width="15.0588" height="15.0588" rx="3.76471" fill="white"/>
</clipPath>
</defs>
</svg>
